<svg width="123" height="123" viewBox="0 0 123 123" fill="none" xmlns="http://www.w3.org/2000/svg">
<path d="M25.8 77.5999C25.8 84.6999 20 90.5 12.9 90.5C5.8 90.5 0 84.6999 0 77.5999C0 70.4999 5.8 64.7 12.9 64.7H25.8V77.5999Z" fill="#E01E5A"/>
<path d="M32.2998 77.5999C32.2998 70.4999 38.0998 64.7 45.1998 64.7C52.2998 64.7 58.0998 70.4999 58.0998 77.5999V109.9C58.0998 117 52.2998 122.8 45.1998 122.8C38.0998 122.8 32.2998 117 32.2998 109.9V77.5999Z" fill="#E01E5A"/>
<path d="M45.1998 25.8C38.0998 25.8 32.2998 20 32.2998 12.9C32.2998 5.8 38.0998 0 45.1998 0C52.2998 0 58.0998 5.8 58.0998 12.9V25.8H45.1998Z" fill="#36C5F0"/>
<path d="M45.2 32.3C52.3 32.3 58.1 38.1001 58.1 45.2001C58.1 52.3001 52.3 58.1 45.2 58.1H12.9C5.8 58.1 0 52.3001 0 45.2001C0 38.1001 5.8 32.3 12.9 32.3H45.2Z" fill="#36C5F0"/>
<path d="M97 45.2001C97 38.1001 102.8 32.3 109.9 32.3C117 32.3 122.8 38.1001 122.8 45.2001C122.8 52.3001 117 58.1 109.9 58.1H97V45.2001Z" fill="#2EB67D"/>
<path d="M90.5002 45.2C90.5002 52.3 84.7002 58.1 77.6002 58.1C70.5002 58.1 64.7002 52.3 64.7002 45.2V12.9C64.7002 5.8 70.5002 0 77.6002 0C84.7002 0 90.5002 5.8 90.5002 12.9V45.2Z" fill="#2EB67D"/>
<path d="M77.6002 97C84.7002 97 90.5002 102.8 90.5002 109.9C90.5002 117 84.7002 122.8 77.6002 122.8C70.5002 122.8 64.7002 117 64.7002 109.9V97H77.6002Z" fill="#ECB22E"/>
<path d="M77.6002 90.5C70.5002 90.5 64.7002 84.6999 64.7002 77.5999C64.7002 70.4999 70.5002 64.7 77.6002 64.7H109.9C117 64.7 122.8 70.4999 122.8 77.5999C122.8 84.6999 117 90.5 109.9 90.5H77.6002Z" fill="#ECB22E"/>
</svg>
