<svg width="61" height="33" viewBox="-1 -1 61 33" fill="none">
<path d="M0.512625 15.0002C0.236571 14.9932 0.00713193 15.2113 0.000159416 15.4874L-0.113464 19.9859C-0.120437 20.262 0.0976971 20.4914 0.373751 20.4984C0.649806 20.5054 0.879244 20.2872 0.886217 20.0112L0.987216 16.0125L4.98594 16.1135C5.26199 16.1204 5.49143 15.9023 5.49841 15.6262C5.50538 15.3502 5.28724 15.1208 5.01119 15.1138L0.512625 15.0002ZM0.5 15.5C0.137632 15.8445 0.137842 15.8447 0.138104 15.845C0.13826 15.8452 0.138573 15.8455 0.138885 15.8458C0.139508 15.8465 0.140337 15.8473 0.141371 15.8484C0.143439 15.8506 0.146328 15.8536 0.150034 15.8574C0.157446 15.8651 0.168126 15.8761 0.182044 15.8903C0.209881 15.9187 0.250674 15.9599 0.304184 16.0128C0.411198 16.1186 0.56911 16.2713 0.776 16.4622C1.18972 16.8441 1.79966 17.3793 2.59044 17.9992C4.17131 19.2384 6.47905 20.819 9.39056 22.1873C15.2178 24.9259 23.4747 26.8172 33.1402 23.4065L32.8074 22.4635C23.4498 25.7656 15.4697 23.9394 9.81589 21.2823C6.98684 19.9527 4.74297 18.4159 3.20737 17.2122C2.43991 16.6106 1.8504 16.093 1.45423 15.7274C1.25617 15.5446 1.10653 15.3998 1.00722 15.3017C0.95757 15.2526 0.920512 15.2152 0.896287 15.1904C0.884175 15.1781 0.875273 15.1689 0.869609 15.163C0.866777 15.1601 0.864755 15.158 0.863547 15.1567C0.862943 15.1561 0.862543 15.1557 0.862346 15.1555C0.862247 15.1554 0.862253 15.1554 0.862204 15.1553C0.86226 15.1554 0.862368 15.1555 0.5 15.5ZM33.1402 23.4065C42.7533 20.0143 48.2183 14.8394 51.2795 10.4879C52.8082 8.31488 53.7341 6.3522 54.2787 4.92753C54.551 4.21516 54.7282 3.63703 54.8378 3.23394C54.8926 3.03238 54.9305 2.87453 54.9551 2.76548C54.9673 2.71095 54.9762 2.66862 54.9822 2.63912C54.9852 2.62437 54.9875 2.61282 54.9891 2.60456C54.9899 2.60044 54.9905 2.59713 54.991 2.59465C54.9912 2.59341 54.9914 2.59238 54.9915 2.59156C54.9916 2.59115 54.9917 2.59069 54.9917 2.59049C54.9918 2.59008 54.9919 2.58972 54.5 2.5C54.0081 2.41027 54.0082 2.41003 54.0082 2.40983C54.0082 2.40983 54.0082 2.40969 54.0082 2.40969C54.0082 2.40971 54.0082 2.40993 54.0081 2.41035C54.0079 2.41121 54.0076 2.41289 54.0071 2.41538C54.0062 2.42036 54.0046 2.4286 54.0023 2.44002C53.9976 2.46285 53.9901 2.49839 53.9794 2.54601C53.958 2.64125 53.9236 2.78477 53.8728 2.97154C53.7712 3.34511 53.6042 3.89147 53.3446 4.57045C52.8255 5.92848 51.9366 7.81592 50.4616 9.91254C47.5155 14.1004 42.2174 19.143 32.8074 22.4635L33.1402 23.4065Z" fill="black"></path>
</svg>