<svg width="26" height="26" viewBox="0 0 26 26" fill="none" xmlns="http://www.w3.org/2000/svg">
<g clip-path="url(#clip0_15431_203091)">
<path d="M19.334 6H6V19.334H19.334V6Z" fill="white"/>
<path d="M8.7352 16.3439C8.22329 15.9917 7.85576 15.4665 7.7002 14.8649L8.8562 14.3889C8.93749 14.7489 9.12989 15.0742 9.4062 15.3189C9.67141 15.5398 10.0081 15.6565 10.3532 15.6469C10.7094 15.6546 11.0561 15.5319 11.3282 15.3019C11.4587 15.1964 11.5633 15.0624 11.634 14.9102C11.7047 14.758 11.7397 14.5917 11.7362 14.4239C11.7399 14.2521 11.7028 14.0819 11.6281 13.9272C11.5534 13.7725 11.443 13.6377 11.3062 13.5339C10.9987 13.297 10.6181 13.1749 10.2302 13.1889H9.5652V12.0439H10.1652C10.5021 12.0548 10.8325 11.9488 11.1002 11.7439C11.2245 11.6471 11.3238 11.522 11.3899 11.379C11.456 11.236 11.487 11.0793 11.4802 10.9219C11.4851 10.7803 11.457 10.6395 11.3979 10.5107C11.3389 10.3819 11.2507 10.2686 11.1402 10.1799C10.8951 9.9883 10.59 9.88979 10.2792 9.90189C9.98438 9.88588 9.6946 9.98319 9.4692 10.1739C9.26943 10.3561 9.11909 10.5859 9.0322 10.8419L7.8872 10.3649C8.05344 9.91402 8.34399 9.51946 8.7252 9.22689C9.17331 8.88562 9.72639 8.71128 10.2892 8.73389C10.7254 8.72668 11.1574 8.81938 11.5522 9.00489C11.9079 9.17176 12.2115 9.43243 12.4302 9.75889C12.6417 10.0793 12.7522 10.4559 12.7472 10.8399C12.7592 11.2078 12.6561 11.5704 12.4522 11.8769C12.2668 12.1496 12.018 12.3734 11.7272 12.5289V12.5999C12.0974 12.7524 12.4189 13.0031 12.6572 13.3249C12.9034 13.6633 13.031 14.0735 13.0202 14.4919C13.027 14.9214 12.907 15.3433 12.6752 15.7049C12.4394 16.0647 12.1108 16.3542 11.7242 16.5429C11.2998 16.7514 10.832 16.8566 10.3592 16.8499C9.77877 16.8518 9.2118 16.6752 8.7352 16.3439Z" fill="#4285F4"/>
<path d="M15.841 10.604L14.571 11.522L13.936 10.559L16.214 8.91504H17.087V16.667H15.841V10.604Z" fill="#4285F4"/>
<path d="M19.334 19.334H6V25.334H19.334V19.334Z" fill="#34A853"/>
<path d="M19.334 0H2C1.46957 0 0.960859 0.210714 0.585786 0.585786C0.210714 0.960859 0 1.46957 0 2L0 19.334H6V6H19.334V0Z" fill="#4285F4"/>
<path d="M0 19.334V23.334C0 23.8644 0.210714 24.3731 0.585786 24.7482C0.960859 25.1233 1.46957 25.334 2 25.334H6V19.334H0Z" fill="#188038"/>
<path d="M25.334 6H19.334V19.334H25.334V6Z" fill="#FBBC04"/>
<path d="M25.334 6V2C25.334 1.46957 25.1233 0.960859 24.7482 0.585786C24.3731 0.210714 23.8644 0 23.334 0L19.334 0V6H25.334Z" fill="#1967D2"/>
<path d="M19.334 25.334L25.334 19.334H19.334V25.334Z" fill="#EA4335"/>
</g>
<defs>
<clipPath id="clip0_15431_203091">
<rect width="25.334" height="25.334" fill="white"/>
</clipPath>
</defs>
</svg>
